# xmcd
#
# Track frame offsets:
#	150
#	23415
#	48282
#	77077
#	99945
#	114112
#	136907
#	159345
#	179287
#	193170
#	212315
#
# Disc length: 3282 seconds
#
# Revision: 3
# Processed by: cddbd v1.5.2PL0 Copyright (c) Steve Scherf et al.
# Submitted via: EasyCDDAExtractor 2010.6.0.0
#
DISCID=780cd00b
DTITLE=Phyllis Hyman - The Classic Balladry of Phyllis Hyman
DYEAR=1996
DGENRE=R&B
TTITLE0=The Answer Is You
TTITLE1=I Don't Want To Lose You
TTITLE2=Betcha By Golly, Wow
TTITLE3=Can't We Fall In Love Again
TTITLE4=Sounds Like A Love Song
TTITLE5=Gonna Make Changes
TTITLE6=Was Yesterday Such  a Long Time Ago
TTITLE7=No One Can Love You More
TTITLE8=Here's That Rainy Day
TTITLE9=Be Careful (How You Treat My Love)
TTITLE10=Loving You, Losing You
EXTD=
EXTT0=
EXTT1=
EXTT2=
EXTT3=
EXTT4=
EXTT5=
EXTT6=
EXTT7=
EXTT8=
EXTT9=
EXTT10=
PLAYORDER=
